%TF.GenerationSoftware,KiCad,Pcbnew,10.0.5*%
%TF.CreationDate,2026-09-05T13:53:24+02:00*%
%TF.ProjectId,FMTransmitterRaspi,464d5472-616e-4736-9d69-747465725261,rev?*%
%TF.SameCoordinates,Original*%
%TF.FileFunction,Copper,L1,Top*%
%TF.FilePolarity,Positive*%
%FSLAX46Y46*%
G04 Gerber Fmt 4.6, Leading zero omitted, Abs format (unit mm)*
G04 Created by KiCad (PCBNEW 10.0.5) date 2026-09-05 13:53:24*
%MOMM*%
%LPD*%
G01*
G04 APERTURE LIST*
G04 Aperture macros list*
%AMRoundRect*
0 Rectangle with rounded corners*
0 $1 Rounding radius*
0 $2 $3 $4 $5 $6 $7 $8 $9 X,Y pos of 4 corners*
0 Add a 4 corners polygon primitive as box body*
4,1,4,$2,$3,$4,$5,$6,$7,$8,$9,$2,$3,0*
0 Add four circle primitives for the rounded corners*
1,1,$1+$1,$2,$3*
1,1,$1+$1,$4,$5*
1,1,$1+$1,$6,$7*
1,1,$1+$1,$8,$9*
0 Add four rect primitives between the rounded corners*
20,1,$1+$1,$2,$3,$4,$5,0*
20,1,$1+$1,$4,$5,$6,$7,0*
20,1,$1+$1,$6,$7,$8,$9,0*
20,1,$1+$1,$8,$9,$2,$3,0*%
G04 Aperture macros list end*
%TA.AperFunction,ComponentPad*%
%ADD10R,1.700000X1.700000*%
%TD*%
%TA.AperFunction,ComponentPad*%
%ADD11C,1.700000*%
%TD*%
%TA.AperFunction,SMDPad,CuDef*%
%ADD12RoundRect,0.237500X0.300000X0.237500X-0.300000X0.237500X-0.300000X-0.237500X0.300000X-0.237500X0*%
%TD*%
%TA.AperFunction,SMDPad,CuDef*%
%ADD13RoundRect,0.250000X-0.337500X-0.475000X0.337500X-0.475000X0.337500X0.475000X-0.337500X0.475000X0*%
%TD*%
%TA.AperFunction,ComponentPad*%
%ADD14C,1.600000*%
%TD*%
%TA.AperFunction,SMDPad,CuDef*%
%ADD15RoundRect,0.237500X0.237500X-0.300000X0.237500X0.300000X-0.237500X0.300000X-0.237500X-0.300000X0*%
%TD*%
%TA.AperFunction,SMDPad,CuDef*%
%ADD16RoundRect,0.237500X-0.250000X-0.237500X0.250000X-0.237500X0.250000X0.237500X-0.250000X0.237500X0*%
%TD*%
%TA.AperFunction,SMDPad,CuDef*%
%ADD17RoundRect,0.300000X-0.700000X1.200000X-0.700000X-1.200000X0.700000X-1.200000X0.700000X1.200000X0*%
%TD*%
%TA.AperFunction,ComponentPad*%
%ADD18C,1.500000*%
%TD*%
%TA.AperFunction,SMDPad,CuDef*%
%ADD19RoundRect,0.250000X-0.750000X-2.250000X0.750000X-2.250000X0.750000X2.250000X-0.750000X2.250000X0*%
%TD*%
%TA.AperFunction,ComponentPad*%
%ADD20C,1.000000*%
%TD*%
%TA.AperFunction,SMDPad,CuDef*%
%ADD21RoundRect,0.175000X0.175000X0.625000X-0.175000X0.625000X-0.175000X-0.625000X0.175000X-0.625000X0*%
%TD*%
%TA.AperFunction,SMDPad,CuDef*%
%ADD22RoundRect,0.200000X0.200000X0.600000X-0.200000X0.600000X-0.200000X-0.600000X0.200000X-0.600000X0*%
%TD*%
%TA.AperFunction,SMDPad,CuDef*%
%ADD23RoundRect,0.225000X0.225000X0.575000X-0.225000X0.575000X-0.225000X-0.575000X0.225000X-0.575000X0*%
%TD*%
%TA.AperFunction,ComponentPad*%
%ADD24O,1.000000X1.700000*%
%TD*%
%TA.AperFunction,SMDPad,CuDef*%
%ADD25RoundRect,0.237500X-0.300000X-0.237500X0.300000X-0.237500X0.300000X0.237500X-0.300000X0.237500X0*%
%TD*%
%TA.AperFunction,SMDPad,CuDef*%
%ADD26RoundRect,0.250000X0.350000X-0.275000X0.350000X0.275000X-0.350000X0.275000X-0.350000X-0.275000X0*%
%TD*%
%TA.AperFunction,ComponentPad*%
%ADD27RoundRect,0.250001X1.149999X-1.149999X1.149999X1.149999X-1.149999X1.149999X-1.149999X-1.149999X0*%
%TD*%
%TA.AperFunction,ComponentPad*%
%ADD28C,2.800000*%
%TD*%
%TA.AperFunction,SMDPad,CuDef*%
%ADD29RoundRect,0.087500X0.662500X0.087500X-0.662500X0.087500X-0.662500X-0.087500X0.662500X-0.087500X0*%
%TD*%
%TA.AperFunction,SMDPad,CuDef*%
%ADD30RoundRect,0.100000X0.637500X0.100000X-0.637500X0.100000X-0.637500X-0.100000X0.637500X-0.100000X0*%
%TD*%
%TA.AperFunction,SMDPad,CuDef*%
%ADD31RoundRect,0.237500X0.250000X0.237500X-0.250000X0.237500X-0.250000X-0.237500X0.250000X-0.237500X0*%
%TD*%
%TA.AperFunction,SMDPad,CuDef*%
%ADD32RoundRect,0.150000X-0.512500X-0.150000X0.512500X-0.150000X0.512500X0.150000X-0.512500X0.150000X0*%
%TD*%
%TA.AperFunction,SMDPad,CuDef*%
%ADD33RoundRect,0.250000X0.337500X0.475000X-0.337500X0.475000X-0.337500X-0.475000X0.337500X-0.475000X0*%
%TD*%
%TA.AperFunction,ViaPad*%
%ADD34C,0.900000*%
%TD*%
%TA.AperFunction,Conductor*%
%ADD35C,0.400000*%
%TD*%
%TA.AperFunction,Conductor*%
%ADD36C,0.200000*%
%TD*%
%TA.AperFunction,Conductor*%
%ADD37C,0.500000*%
%TD*%
%TA.AperFunction,Conductor*%
%ADD38C,0.750000*%
%TD*%
G04 APERTURE END LIST*
D10*
%TO.P,J2,1,Pin_1_1*%
%TO.N,+3V3*%
X101778000Y-101778000D03*
D11*
%TO.P,J2,2,Pin_2_2*%
%TO.N,+5V*%
X104318000Y-101778000D03*
%TO.P,J2,3,Pin_3_3*%
%TO.N,/GPIO2{slash}SDA1*%
X101778000Y-104318000D03*
%TO.P,J2,4,Pin_4_4*%
%TO.N,+5V*%
X104318000Y-104318000D03*
%TO.P,J2,5,Pin_5_5*%
%TO.N,/GPIO3{slash}SCL1*%
X101778000Y-106858000D03*
%TO.P,J2,6,Pin_6_6*%
%TO.N,GND*%
X104318000Y-106858000D03*
%TO.P,J2,7,Pin_7_7*%
%TO.N,/GPIO4{slash}GPCLK0*%
X101778000Y-109398000D03*
%TO.P,J2,8,Pin_8_8*%
%TO.N,/GPIO14{slash}TXD0*%
X104318000Y-109398000D03*
%TO.P,J2,9,Pin_9_9*%
%TO.N,GND*%
X101778000Y-111938000D03*
%TO.P,J2,10,Pin_10_10*%
%TO.N,/GPIO15{slash}RXD0*%
X104318000Y-111938000D03*
%TO.P,J2,11,Pin_11_11*%
%TO.N,/GPIO17*%
X101778000Y-114478000D03*
%TO.P,J2,12,Pin_12_12*%
%TO.N,/GPIO18{slash}PCM.CLK*%
X104318000Y-114478000D03*
%TO.P,J2,13,Pin_13_13*%
%TO.N,/GPIO27*%
X101778000Y-117018000D03*
%TO.P,J2,14,Pin_14_14*%
%TO.N,GND*%
X104318000Y-117018000D03*
%TO.P,J2,15,Pin_15_15*%
%TO.N,/GPIO22*%
X101778000Y-119558000D03*
%TO.P,J2,16,Pin_16_16*%
%TO.N,/GPIO23*%
X104318000Y-119558000D03*
%TO.P,J2,17,Pin_17_17*%
%TO.N,+3V3*%
X101778000Y-122098000D03*
%TO.P,J2,18,Pin_18_18*%
%TO.N,/GPIO24*%
X104318000Y-122098000D03*
%TO.P,J2,19,Pin_19_19*%
%TO.N,/GPIO10{slash}SPI0.MOSI*%
X101778000Y-124638000D03*
%TO.P,J2,20,Pin_20_20*%
%TO.N,GND*%
X104318000Y-124638000D03*
%TO.P,J2,21,Pin_21_21*%
%TO.N,/GPIO9{slash}SPI0.MISO*%
X101778000Y-127178000D03*
%TO.P,J2,22,Pin_22_22*%
%TO.N,/GPIO25*%
X104318000Y-127178000D03*
%TO.P,J2,23,Pin_23_23*%
%TO.N,/GPIO11{slash}SPI0.SCLK*%
X101778000Y-129718000D03*
%TO.P,J2,24,Pin_24_24*%
%TO.N,/GPIO8{slash}SPI0.CE0*%
X104318000Y-129718000D03*
%TO.P,J2,25,Pin_25_25*%
%TO.N,GND*%
X101778000Y-132258000D03*
%TO.P,J2,26,Pin_26_26*%
%TO.N,/GPIO7{slash}SPI0.CE1*%
X104318000Y-132258000D03*
%TO.P,J2,27,Pin_27_27*%
%TO.N,/ID_SDA*%
X101778000Y-134798000D03*
%TO.P,J2,28,Pin_28_28*%
%TO.N,/ID_SCL*%
X104318000Y-134798000D03*
%TO.P,J2,29,Pin_29_29*%
%TO.N,/GPIO5*%
X101778000Y-137338000D03*
%TO.P,J2,30,Pin_30_30*%
%TO.N,GND*%
X104318000Y-137338000D03*
%TO.P,J2,31,Pin_31_31*%
%TO.N,/GPIO6*%
X101778000Y-139878000D03*
%TO.P,J2,32,Pin_32_32*%
%TO.N,/GPIO12{slash}PWM0*%
X104318000Y-139878000D03*
%TO.P,J2,33,Pin_33_33*%
%TO.N,/GPIO13{slash}PWM1*%
X101778000Y-142418000D03*
%TO.P,J2,34,Pin_34_34*%
%TO.N,GND*%
X104318000Y-142418000D03*
%TO.P,J2,35,Pin_35_35*%
%TO.N,/GPIO19{slash}PCM.FS*%
X101778000Y-144958000D03*
%TO.P,J2,36,Pin_36_36*%
%TO.N,/GPIO16*%
X104318000Y-144958000D03*
%TO.P,J2,37,Pin_37_37*%
%TO.N,/GPIO26*%
X101778000Y-147498000D03*
%TO.P,J2,38,Pin_38_38*%
%TO.N,/GPIO20{slash}PCM.DIN*%
X104318000Y-147498000D03*
%TO.P,J2,39,Pin_39_39*%
%TO.N,GND*%
X101778000Y-150038000D03*
%TO.P,J2,40,Pin_40_40*%
%TO.N,/GPIO21{slash}PCM.DOUT*%
X104318000Y-150038000D03*
%TD*%
D12*
%TO.P,C17,2*%
%TO.N,GND*%
X129972000Y-142504209D03*
%TO.P,C17,1*%
%TO.N,Net-(U2-LDOO)*%
X131697000Y-142504209D03*
%TD*%
D13*
%TO.P,C21,1*%
%TO.N,+3.3VA*%
X141888500Y-150292000D03*
%TO.P,C21,2*%
%TO.N,GND*%
X143963500Y-150292000D03*
%TD*%
D14*
%TO.P,C18,1*%
%TO.N,Net-(J6-Pin_3)*%
X132960000Y-128448000D03*
%TO.P,C18,2*%
%TO.N,GND*%
X125460000Y-128448000D03*
%TD*%
D15*
%TO.P,C4,1*%
%TO.N,+3V3*%
X131242000Y-111276500D03*
%TO.P,C4,2*%
%TO.N,GND*%
X131242000Y-109551500D03*
%TD*%
D16*
%TO.P,R3,1*%
%TO.N,Net-(U2-OUTR)*%
X139624000Y-138608000D03*
%TO.P,R3,2*%
%TO.N,Net-(J6-Pin_3)*%
X141449000Y-138608000D03*
%TD*%
D15*
%TO.P,C8,1*%
%TO.N,+3.3VA*%
X144704000Y-115187000D03*
%TO.P,C8,2*%
%TO.N,GND*%
X144704000Y-113462000D03*
%TD*%
D12*
%TO.P,C22,1*%
%TO.N,+3.3VA*%
X139317000Y-150292000D03*
%TO.P,C22,2*%
%TO.N,GND*%
X137592000Y-150292000D03*
%TD*%
D17*
%TO.P,J5,R*%
%TO.N,Net-(J6-Pin_3)*%
X150908000Y-134388000D03*
%TO.P,J5,S*%
%TO.N,GND*%
X153608000Y-127588000D03*
X154608000Y-134388000D03*
%TO.P,J5,T*%
%TO.N,Net-(J6-Pin_1)*%
X146608000Y-127588000D03*
%TO.P,J5,TN*%
X144908000Y-134388000D03*
%TD*%
D18*
%TO.P,C14,1*%
%TO.N,Net-(J6-Pin_3)*%
X133020000Y-123034000D03*
%TO.P,C14,2*%
%TO.N,Net-(U1-ARI)*%
X133020000Y-118034000D03*
%TD*%
D19*
%TO.P,Y2,3*%
%TO.N,N/C*%
X138950000Y-121772000D03*
D20*
%TO.P,Y2,2,2_2*%
%TO.N,Net-(U1-XTAL2)*%
X139800000Y-117272000D03*
%TO.P,Y2,1,1_1*%
%TO.N,Net-(U1-XTAL1)*%
X138100000Y-117272000D03*
%TD*%
D21*
%TO.P,J4,A5,CC1_A5*%
%TO.N,Net-(J4-CC1)*%
X129456000Y-107028000D03*
D22*
%TO.P,J4,A9,VBUS_A9*%
%TO.N,+5V*%
X127436000Y-107028000D03*
D23*
%TO.P,J4,A12,GND_A12*%
%TO.N,GND*%
X126206000Y-107028000D03*
D21*
%TO.P,J4,B5,CC2_B5*%
%TO.N,Net-(J4-CC1)*%
X128456000Y-107028000D03*
D22*
%TO.P,J4,B9,VBUS_B9*%
%TO.N,+5V*%
X130476000Y-107028000D03*
D23*
%TO.P,J4,B12,GND_B12*%
%TO.N,GND*%
X131706000Y-107028000D03*
D24*
%TO.P,J4,SH,SHIELD_SH*%
X133276000Y-106848000D03*
X133276000Y-103048000D03*
X124636000Y-106848000D03*
X124636000Y-103048000D03*
%TD*%
D10*
%TO.P,J6,1,Pin_1_1*%
%TO.N,Net-(J6-Pin_1)*%
X137846000Y-133528000D03*
D11*
%TO.P,J6,2,Pin_2_2*%
%TO.N,GND*%
X137846000Y-130988000D03*
%TO.P,J6,3,Pin_3_3*%
%TO.N,Net-(J6-Pin_3)*%
X137846000Y-128448000D03*
%TD*%
D15*
%TO.P,C7,1*%
%TO.N,+3.3VA*%
X141656000Y-115240000D03*
%TO.P,C7,2*%
%TO.N,GND*%
X141656000Y-113515000D03*
%TD*%
D12*
%TO.P,C13,1*%
%TO.N,+3V3*%
X127517000Y-138679000D03*
%TO.P,C13,2*%
%TO.N,GND*%
X125792000Y-138679000D03*
%TD*%
D15*
%TO.P,C11,1*%
%TO.N,Net-(U2-CAPP)*%
X145720000Y-147598500D03*
%TO.P,C11,2*%
%TO.N,Net-(U2-CAPM)*%
X145720000Y-145873500D03*
%TD*%
D25*
%TO.P,C3,2*%
%TO.N,GND*%
X143688000Y-117780000D03*
%TO.P,C3,1*%
%TO.N,Net-(U1-XTAL2)*%
X141963000Y-117780000D03*
%TD*%
D26*
%TO.P,L1,1,1_1*%
%TO.N,Net-(U1-RFO)*%
X141148000Y-110802000D03*
%TO.P,L1,2,2_2*%
%TO.N,GND*%
X141148000Y-108502000D03*
%TD*%
D15*
%TO.P,C15,1*%
%TO.N,Net-(U2-VNEG)*%
X145720000Y-143280500D03*
%TO.P,C15,2*%
%TO.N,GND*%
X145720000Y-141555500D03*
%TD*%
D18*
%TO.P,C9,1*%
%TO.N,Net-(J6-Pin_1)*%
X125908000Y-123074000D03*
%TO.P,C9,2*%
%TO.N,Net-(U1-ALI)*%
X125908000Y-118074000D03*
%TD*%
D27*
%TO.P,J1,1,Pin_1_1*%
%TO.N,/Antenna*%
X151562000Y-112954000D03*
D28*
%TO.P,J1,2,Pin_2_2*%
%TO.N,GND*%
X151562000Y-107954000D03*
%TO.P,J1,3,Pin_3_3*%
%TO.N,+5V*%
X151562000Y-102954000D03*
%TD*%
D29*
%TO.P,U1,1,XTAL2_1*%
%TO.N,Net-(U1-XTAL2)*%
X137914000Y-112938000D03*
%TO.P,U1,2,XTAL1_2*%
%TO.N,Net-(U1-XTAL1)*%
X137914000Y-112438000D03*
%TO.P,U1,3,VCC_3*%
%TO.N,+3.3VA*%
X137914000Y-111938000D03*
%TO.P,U1,4,GND_4*%
%TO.N,GND*%
X137914000Y-111438000D03*
%TO.P,U1,5,RFO_5*%
%TO.N,Net-(U1-RFO)*%
X137914000Y-110938000D03*
%TO.P,U1,6,ALI_6*%
%TO.N,Net-(U1-ALI)*%
X133714000Y-110938000D03*
%TO.P,U1,7,ARI_7*%
%TO.N,Net-(U1-ARI)*%
X133714000Y-111438000D03*
%TO.P,U1,8,VIO_8*%
%TO.N,+3V3*%
X133714000Y-111938000D03*
%TO.P,U1,9,SDA_9*%
%TO.N,/GPIO2{slash}SDA1*%
X133714000Y-112438000D03*
%TO.P,U1,10,SCL_10*%
%TO.N,/GPIO3{slash}SCL1*%
X133714000Y-112938000D03*
%TD*%
D12*
%TO.P,C2,2*%
%TO.N,GND*%
X136729500Y-115240000D03*
%TO.P,C2,1*%
%TO.N,Net-(U1-XTAL1)*%
X138454500Y-115240000D03*
%TD*%
D30*
%TO.P,U2,1,CPVDD_1*%
%TO.N,+3.3VA*%
X141216500Y-147883000D03*
%TO.P,U2,2,CAPP_2*%
%TO.N,Net-(U2-CAPP)*%
X141216500Y-147233000D03*
%TO.P,U2,3,CPGND_3*%
%TO.N,GND*%
X141216500Y-146583000D03*
%TO.P,U2,4,CAPM_4*%
%TO.N,Net-(U2-CAPM)*%
X141216500Y-145933000D03*
%TO.P,U2,5,VNEG_5*%
%TO.N,Net-(U2-VNEG)*%
X141216500Y-145283000D03*
%TO.P,U2,6,OUTL_6*%
%TO.N,Net-(U2-OUTL)*%
X141216500Y-144633000D03*
%TO.P,U2,7,OUTR_7*%
%TO.N,Net-(U2-OUTR)*%
X141216500Y-143983000D03*
%TO.P,U2,8,AVDD_8*%
%TO.N,+3.3VA*%
X141216500Y-143333000D03*
%TO.P,U2,9,AGND_9*%
%TO.N,GND*%
X141216500Y-142683000D03*
%TO.P,U2,10,DEMP_10*%
X141216500Y-142033000D03*
%TO.P,U2,11,FLT_11*%
X135491500Y-142033000D03*
%TO.P,U2,12,SCK_12*%
X135491500Y-142683000D03*
%TO.P,U2,13,BCK_13*%
%TO.N,/GPIO18{slash}PCM.CLK*%
X135491500Y-143333000D03*
%TO.P,U2,14,DIN_14*%
%TO.N,/GPIO21{slash}PCM.DOUT*%
X135491500Y-143983000D03*
%TO.P,U2,15,LRCK_15*%
%TO.N,/GPIO19{slash}PCM.FS*%
X135491500Y-144633000D03*
%TO.P,U2,16,FMT_16*%
%TO.N,GND*%
X135491500Y-145283000D03*
%TO.P,U2,17,XSMT_17*%
%TO.N,+3V3*%
X135491500Y-145933000D03*
%TO.P,U2,18,LDOO_18*%
%TO.N,Net-(U2-LDOO)*%
X135491500Y-146583000D03*
%TO.P,U2,19,DGND_19*%
%TO.N,GND*%
X135491500Y-147233000D03*
%TO.P,U2,20,DVDD_20*%
%TO.N,+3V3*%
X135491500Y-147883000D03*
%TD*%
D18*
%TO.P,Y1,1,1_1*%
%TO.N,Net-(U1-XTAL2)*%
X146138000Y-121590000D03*
%TO.P,Y1,2,2_2*%
%TO.N,Net-(U1-XTAL1)*%
X141238000Y-121590000D03*
%TD*%
D12*
%TO.P,C20,1*%
%TO.N,+5V*%
X127532500Y-145974000D03*
%TO.P,C20,2*%
%TO.N,GND*%
X125807500Y-145974000D03*
%TD*%
%TO.P,C12,1*%
%TO.N,+3V3*%
X127517000Y-142489000D03*
%TO.P,C12,2*%
%TO.N,GND*%
X125792000Y-142489000D03*
%TD*%
D31*
%TO.P,R1,1*%
%TO.N,Net-(U2-OUTL)*%
X136830000Y-138608000D03*
%TO.P,R1,2*%
%TO.N,Net-(J6-Pin_1)*%
X135005000Y-138608000D03*
%TD*%
D32*
%TO.P,U3,1,V_{IN}_1*%
%TO.N,+5V*%
X130612500Y-148072000D03*
%TO.P,U3,2,V_{SS}_2*%
%TO.N,GND*%
X130612500Y-149022000D03*
%TO.P,U3,3,CE_3*%
%TO.N,+5V*%
X130612500Y-149972000D03*
%TO.P,U3,4,NC_4*%
%TO.N,unconnected-(U3-NC-Pad4)*%
X132887500Y-149972000D03*
%TO.P,U3,5,V_{OUT}_5*%
%TO.N,+3.3VA*%
X132887500Y-148072000D03*
%TD*%
D33*
%TO.P,C19,1*%
%TO.N,+5V*%
X127686000Y-149530000D03*
%TO.P,C19,2*%
%TO.N,GND*%
X125611000Y-149530000D03*
%TD*%
D10*
%TO.P,J3,1,Pin_1_1*%
%TO.N,+3V3*%
X114224000Y-101778000D03*
D11*
%TO.P,J3,2,Pin_2_2*%
%TO.N,+5V*%
X116764000Y-101778000D03*
%TO.P,J3,3,Pin_3_3*%
%TO.N,/GPIO2{slash}SDA1*%
X114224000Y-104318000D03*
%TO.P,J3,4,Pin_4_4*%
%TO.N,+5V*%
X116764000Y-104318000D03*
%TO.P,J3,5,Pin_5_5*%
%TO.N,/GPIO3{slash}SCL1*%
X114224000Y-106858000D03*
%TO.P,J3,6,Pin_6_6*%
%TO.N,GND*%
X116764000Y-106858000D03*
%TO.P,J3,7,Pin_7_7*%
%TO.N,/GPIO4{slash}GPCLK0*%
X114224000Y-109398000D03*
%TO.P,J3,8,Pin_8_8*%
%TO.N,/GPIO14{slash}TXD0*%
X116764000Y-109398000D03*
%TO.P,J3,9,Pin_9_9*%
%TO.N,GND*%
X114224000Y-111938000D03*
%TO.P,J3,10,Pin_10_10*%
%TO.N,/GPIO15{slash}RXD0*%
X116764000Y-111938000D03*
%TO.P,J3,11,Pin_11_11*%
%TO.N,/GPIO17*%
X114224000Y-114478000D03*
%TO.P,J3,12,Pin_12_12*%
%TO.N,/GPIO18{slash}PCM.CLK*%
X116764000Y-114478000D03*
%TO.P,J3,13,Pin_13_13*%
%TO.N,/GPIO27*%
X114224000Y-117018000D03*
%TO.P,J3,14,Pin_14_14*%
%TO.N,GND*%
X116764000Y-117018000D03*
%TO.P,J3,15,Pin_15_15*%
%TO.N,/GPIO22*%
X114224000Y-119558000D03*
%TO.P,J3,16,Pin_16_16*%
%TO.N,/GPIO23*%
X116764000Y-119558000D03*
%TO.P,J3,17,Pin_17_17*%
%TO.N,+3V3*%
X114224000Y-122098000D03*
%TO.P,J3,18,Pin_18_18*%
%TO.N,/GPIO24*%
X116764000Y-122098000D03*
%TO.P,J3,19,Pin_19_19*%
%TO.N,/GPIO10{slash}SPI0.MOSI*%
X114224000Y-124638000D03*
%TO.P,J3,20,Pin_20_20*%
%TO.N,GND*%
X116764000Y-124638000D03*
%TO.P,J3,21,Pin_21_21*%
%TO.N,/GPIO9{slash}SPI0.MISO*%
X114224000Y-127178000D03*
%TO.P,J3,22,Pin_22_22*%
%TO.N,/GPIO25*%
X116764000Y-127178000D03*
%TO.P,J3,23,Pin_23_23*%
%TO.N,/GPIO11{slash}SPI0.SCLK*%
X114224000Y-129718000D03*
%TO.P,J3,24,Pin_24_24*%
%TO.N,/GPIO8{slash}SPI0.CE0*%
X116764000Y-129718000D03*
%TO.P,J3,25,Pin_25_25*%
%TO.N,GND*%
X114224000Y-132258000D03*
%TO.P,J3,26,Pin_26_26*%
%TO.N,/GPIO7{slash}SPI0.CE1*%
X116764000Y-132258000D03*
%TO.P,J3,27,Pin_27_27*%
%TO.N,/ID_SDA*%
X114224000Y-134798000D03*
%TO.P,J3,28,Pin_28_28*%
%TO.N,/ID_SCL*%
X116764000Y-134798000D03*
%TO.P,J3,29,Pin_29_29*%
%TO.N,/GPIO5*%
X114224000Y-137338000D03*
%TO.P,J3,30,Pin_30_30*%
%TO.N,GND*%
X116764000Y-137338000D03*
%TO.P,J3,31,Pin_31_31*%
%TO.N,/GPIO6*%
X114224000Y-139878000D03*
%TO.P,J3,32,Pin_32_32*%
%TO.N,/GPIO12{slash}PWM0*%
X116764000Y-139878000D03*
%TO.P,J3,33,Pin_33_33*%
%TO.N,/GPIO13{slash}PWM1*%
X114224000Y-142418000D03*
%TO.P,J3,34,Pin_34_34*%
%TO.N,GND*%
X116764000Y-142418000D03*
%TO.P,J3,35,Pin_35_35*%
%TO.N,/GPIO19{slash}PCM.FS*%
X114224000Y-144958000D03*
%TO.P,J3,36,Pin_36_36*%
%TO.N,/GPIO16*%
X116764000Y-144958000D03*
%TO.P,J3,37,Pin_37_37*%
%TO.N,/GPIO26*%
X114224000Y-147498000D03*
%TO.P,J3,38,Pin_38_38*%
%TO.N,/GPIO20{slash}PCM.DIN*%
X116764000Y-147498000D03*
%TO.P,J3,39,Pin_39_39*%
%TO.N,GND*%
X114224000Y-150038000D03*
%TO.P,J3,40,Pin_40_40*%
%TO.N,/GPIO21{slash}PCM.DOUT*%
X116764000Y-150038000D03*
%TD*%
D31*
%TO.P,R2,1*%
%TO.N,Net-(J4-CC1)*%
X126164000Y-110960000D03*
%TO.P,R2,2*%
%TO.N,GND*%
X124339000Y-110960000D03*
%TD*%
D25*
%TO.P,C1,1*%
%TO.N,Net-(U1-RFO)*%
X143333500Y-111176000D03*
%TO.P,C1,2*%
%TO.N,/Antenna*%
X145058500Y-111176000D03*
%TD*%
D12*
%TO.P,C16,1*%
%TO.N,Net-(U2-LDOO)*%
X132612500Y-145974000D03*
%TO.P,C16,2*%
%TO.N,GND*%
X130887500Y-145974000D03*
%TD*%
D14*
%TO.P,C10,1*%
%TO.N,Net-(J6-Pin_1)*%
X133020000Y-133782000D03*
%TO.P,C10,2*%
%TO.N,GND*%
X125520000Y-133782000D03*
%TD*%
D34*
%TO.N,GND*%
X143587500Y-116256000D03*
%TO.N,+5V*%
X126162000Y-109144000D03*
X124892000Y-113970000D03*
X128956000Y-104064000D03*
X128956000Y-103048000D03*
X128956000Y-102032000D03*
%TO.N,+3.3VA*%
X142926000Y-148006000D03*
X139370000Y-148768000D03*
X142926000Y-143434000D03*
X135560000Y-149868003D03*
%TO.N,GND*%
X129210000Y-145974000D03*
X134036000Y-142164000D03*
X139624000Y-146736000D03*
X125908000Y-140894000D03*
X137084000Y-147244000D03*
X141148000Y-106858000D03*
X143688000Y-141555500D03*
X140132000Y-112192000D03*
X129232331Y-149044331D03*
X140640000Y-151317000D03*
X154608000Y-130734000D03*
X125908000Y-147498000D03*
%TO.N,Net-(J6-Pin_3)*%
X141402000Y-134278000D03*
X141402000Y-132766000D03*
%TO.N,+3V3*%
X134036000Y-145466000D03*
X135560000Y-148768000D03*
X123876000Y-136322000D03*
X121590000Y-136322000D03*
%TO.N,/GPIO18{slash}PCM.CLK*%
X133528000Y-143180000D03*
X123850000Y-143206000D03*
%TO.N,/GPIO19{slash}PCM.FS*%
X125146000Y-144633000D03*
X133528000Y-144280003D03*
%TD*%
%TO.N,+3V3*%
D35*
X103302000Y-123368000D02*
X105588000Y-123368000D01*
%TO.N,Net-(U1-XTAL1)*%
D36*
X138454500Y-116663500D02*
X138454500Y-115240000D01*
X138100000Y-117018000D02*
X138454500Y-116663500D01*
X138100000Y-117272000D02*
X138100000Y-117018000D01*
X138100000Y-118288000D02*
X138100000Y-117272000D01*
X139370000Y-118288000D02*
X138100000Y-118288000D01*
X141238000Y-120156000D02*
X139370000Y-118288000D01*
X141238000Y-121590000D02*
X141238000Y-120156000D01*
%TO.N,Net-(U1-XTAL2)*%
X139800000Y-113892000D02*
X138846000Y-112938000D01*
X139800000Y-117272000D02*
X139800000Y-113892000D01*
X141402000Y-117272000D02*
X139800000Y-117272000D01*
X141910000Y-117780000D02*
X141402000Y-117272000D01*
X141963000Y-117780000D02*
X141910000Y-117780000D01*
X141963000Y-118341000D02*
X141963000Y-117780000D01*
X142672000Y-119050000D02*
X141963000Y-118341000D01*
X143598000Y-119050000D02*
X142672000Y-119050000D01*
X146138000Y-121590000D02*
X143598000Y-119050000D01*
%TO.N,/GPIO2{slash}SDA1*%
X112834000Y-105708000D02*
X114224000Y-104318000D01*
X103168000Y-105708000D02*
X112834000Y-105708000D01*
X101778000Y-104318000D02*
X103168000Y-105708000D01*
%TO.N,+3V3*%
X125160000Y-136322000D02*
X127517000Y-138679000D01*
X123876000Y-136322000D02*
X125160000Y-136322000D01*
%TO.N,/GPIO19{slash}PCM.FS*%
X114986000Y-144958000D02*
X114224000Y-144958000D01*
X116136000Y-146108000D02*
X114986000Y-144958000D01*
X118715346Y-144633000D02*
X117240346Y-146108000D01*
X125146000Y-144633000D02*
X118715346Y-144633000D01*
X117240346Y-146108000D02*
X116136000Y-146108000D01*
%TO.N,+5V*%
X127532500Y-145533722D02*
X127532500Y-145974000D01*
X123114000Y-141115222D02*
X127532500Y-145533722D01*
X123114000Y-115748000D02*
X123114000Y-141115222D01*
X124892000Y-113970000D02*
X123114000Y-115748000D01*
%TO.N,/GPIO2{slash}SDA1*%
X121856000Y-109731222D02*
X117592778Y-105468000D01*
X121856000Y-110426000D02*
X121856000Y-109731222D01*
X133714000Y-112438000D02*
X123868000Y-112438000D01*
X123868000Y-112438000D02*
X121856000Y-110426000D01*
%TO.N,+3V3*%
X122606000Y-110481222D02*
X122606000Y-109144000D01*
X123859778Y-111735000D02*
X122606000Y-110481222D01*
X130783500Y-111735000D02*
X123859778Y-111735000D01*
X131242000Y-111276500D02*
X130783500Y-111735000D01*
X131903500Y-111938000D02*
X131242000Y-111276500D01*
X133714000Y-111938000D02*
X131903500Y-111938000D01*
%TO.N,/GPIO2{slash}SDA1*%
X115374000Y-105468000D02*
X114224000Y-104318000D01*
X117592778Y-105468000D02*
X115374000Y-105468000D01*
%TO.N,GND*%
D37*
X131706000Y-109087500D02*
X131242000Y-109551500D01*
X131706000Y-107028000D02*
X131706000Y-109087500D01*
%TO.N,Net-(U2-OUTR)*%
D36*
X139624000Y-139323000D02*
X140179000Y-139878000D01*
X139624000Y-138608000D02*
X139624000Y-139323000D01*
%TO.N,Net-(J6-Pin_3)*%
X141449000Y-136783000D02*
X142037000Y-136195000D01*
X141449000Y-138608000D02*
X141449000Y-136783000D01*
%TO.N,+3.3VA*%
X152208000Y-136371722D02*
X146161722Y-142418000D01*
X152578000Y-121082000D02*
X152208000Y-121452000D01*
X152208000Y-121452000D02*
X152208000Y-136371722D01*
X146161722Y-142418000D02*
X143942000Y-142418000D01*
X152578000Y-118288000D02*
X152578000Y-121082000D01*
X151562000Y-117272000D02*
X152578000Y-118288000D01*
X146736000Y-117272000D02*
X151562000Y-117272000D01*
X143942000Y-142418000D02*
X142926000Y-143434000D01*
%TO.N,Net-(J6-Pin_3)*%
X149101000Y-136195000D02*
X142037000Y-136195000D01*
X150908000Y-134388000D02*
X149101000Y-136195000D01*
%TO.N,Net-(J6-Pin_1)*%
X146608000Y-132688000D02*
X144908000Y-134388000D01*
X146608000Y-127588000D02*
X146608000Y-132688000D01*
%TO.N,GND*%
X137113568Y-111438000D02*
X137914000Y-111438000D01*
X136464000Y-112087568D02*
X137113568Y-111438000D01*
X136464000Y-114974500D02*
X136464000Y-112087568D01*
X136729500Y-115240000D02*
X136464000Y-114974500D01*
X143688000Y-116356500D02*
X143587500Y-116256000D01*
X143688000Y-117780000D02*
X143688000Y-116356500D01*
%TO.N,Net-(U1-XTAL2)*%
X138846000Y-112938000D02*
X137914000Y-112938000D01*
%TO.N,Net-(U1-XTAL1)*%
X136864000Y-113649500D02*
X138454500Y-115240000D01*
X136864000Y-112687568D02*
X136864000Y-113649500D01*
X137113568Y-112438000D02*
X136864000Y-112687568D01*
%TO.N,Net-(J6-Pin_1)*%
X133020000Y-133782000D02*
X129210000Y-129972000D01*
X129210000Y-126376000D02*
X129210000Y-129972000D01*
X125908000Y-123074000D02*
X129210000Y-126376000D01*
%TO.N,Net-(J6-Pin_3)*%
X133020000Y-128388000D02*
X132960000Y-128448000D01*
X133020000Y-123034000D02*
X133020000Y-128388000D01*
%TO.N,Net-(U1-ALI)*%
X126918000Y-119084000D02*
X125908000Y-118074000D01*
X135452000Y-117086925D02*
X133454925Y-119084000D01*
X135452000Y-111809883D02*
X135452000Y-117086925D01*
X133454925Y-119084000D02*
X126918000Y-119084000D01*
X134580117Y-110938000D02*
X135452000Y-111809883D01*
X133714000Y-110938000D02*
X134580117Y-110938000D01*
%TO.N,Net-(U1-ARI)*%
X134514432Y-111438000D02*
X133714000Y-111438000D01*
X135052000Y-111975568D02*
X134514432Y-111438000D01*
X135052000Y-116002000D02*
X135052000Y-111975568D01*
X133020000Y-118034000D02*
X135052000Y-116002000D01*
%TO.N,+3V3*%
D37*
X103048000Y-123114000D02*
X102794000Y-123114000D01*
X103302000Y-123368000D02*
X103048000Y-123114000D01*
X102794000Y-123114000D02*
X101778000Y-122098000D01*
X112954000Y-123368000D02*
X105588000Y-123368000D01*
X114224000Y-122098000D02*
X112954000Y-123368000D01*
%TO.N,+5V*%
D36*
X127436000Y-107870000D02*
X127436000Y-107028000D01*
X126162000Y-109144000D02*
X127436000Y-107870000D01*
D38*
X128956000Y-104064000D02*
X128956000Y-103048000D01*
X128956000Y-103048000D02*
X128956000Y-102032000D01*
X128956000Y-105653000D02*
X130037000Y-105653000D01*
X128956000Y-105653000D02*
X128956000Y-104064000D01*
%TO.N,/Antenna*%
D36*
X148514000Y-112954000D02*
X151562000Y-112954000D01*
X146736000Y-111176000D02*
X148514000Y-112954000D01*
X145058500Y-111176000D02*
X146736000Y-111176000D01*
%TO.N,Net-(U1-RFO)*%
X142164000Y-111176000D02*
X143333500Y-111176000D01*
X141790000Y-110802000D02*
X142164000Y-111176000D01*
X141148000Y-110802000D02*
X141790000Y-110802000D01*
%TO.N,+3.3VA*%
X146736000Y-117219000D02*
X144704000Y-115187000D01*
X146736000Y-117272000D02*
X146736000Y-117219000D01*
X142217000Y-115187000D02*
X144704000Y-115187000D01*
X142164000Y-115240000D02*
X142217000Y-115187000D01*
X141656000Y-115240000D02*
X142164000Y-115240000D01*
X138714432Y-111938000D02*
X141656000Y-114879568D01*
X141656000Y-114879568D02*
X141656000Y-115240000D01*
X137914000Y-111938000D02*
X138714432Y-111938000D01*
%TO.N,GND*%
X141455000Y-113515000D02*
X140132000Y-112192000D01*
X141656000Y-113515000D02*
X141455000Y-113515000D01*
X141709000Y-113462000D02*
X141656000Y-113515000D01*
X144704000Y-113462000D02*
X141709000Y-113462000D01*
%TO.N,+3.3VA*%
X140894000Y-150292000D02*
X139370000Y-148768000D01*
X141888500Y-150292000D02*
X140894000Y-150292000D01*
X139370000Y-148768000D02*
X139370000Y-150239000D01*
X139370000Y-148768000D02*
X140255000Y-147883000D01*
X139370000Y-150239000D02*
X139317000Y-150292000D01*
X142803000Y-147883000D02*
X142926000Y-148006000D01*
X132887500Y-148072000D02*
X133763997Y-148072000D01*
X142926000Y-143434000D02*
X141317500Y-143434000D01*
X141317500Y-143434000D02*
X141216500Y-143333000D01*
X140255000Y-147883000D02*
X141216500Y-147883000D01*
X141216500Y-147883000D02*
X142803000Y-147883000D01*
X133763997Y-148072000D02*
X135560000Y-149868003D01*
%TO.N,GND*%
X125807500Y-145974000D02*
X125807500Y-147397500D01*
X154608000Y-130988000D02*
X154608000Y-134388000D01*
X129972000Y-142504209D02*
X129972000Y-145058500D01*
X125792000Y-141010000D02*
X125908000Y-140894000D01*
X141148000Y-142672000D02*
X141216500Y-142603500D01*
X135491500Y-142033000D02*
X135491500Y-142683000D01*
X130612500Y-149022000D02*
X129254662Y-149022000D01*
X129254662Y-149022000D02*
X129232331Y-149044331D01*
X136772999Y-146932999D02*
X137084000Y-147244000D01*
X137914000Y-111438000D02*
X139378000Y-111438000D01*
X135491500Y-147233000D02*
X135549000Y-147233000D01*
X124339000Y-107145000D02*
X124636000Y-106848000D01*
X142938500Y-151317000D02*
X143963500Y-150292000D01*
X141148000Y-108502000D02*
X141148000Y-106858000D01*
X141159000Y-142683000D02*
X141148000Y-142672000D01*
X140640000Y-151317000D02*
X142938500Y-151317000D01*
X137592000Y-150292000D02*
X138617000Y-151317000D01*
X135491500Y-142033000D02*
X134167000Y-142033000D01*
X139777000Y-146583000D02*
X139624000Y-146736000D01*
X125792000Y-140778000D02*
X125908000Y-140894000D01*
X125807500Y-147397500D02*
X125908000Y-147498000D01*
X138617000Y-151317000D02*
X140640000Y-151317000D01*
X141533000Y-142033000D02*
X142010500Y-141555500D01*
X124816000Y-107028000D02*
X124636000Y-106848000D01*
X125611000Y-149530000D02*
X125611000Y-147795000D01*
X142010500Y-141555500D02*
X143688000Y-141555500D01*
X141216500Y-146583000D02*
X139777000Y-146583000D01*
X124339000Y-110960000D02*
X124339000Y-107145000D01*
X153608000Y-127588000D02*
X154608000Y-128588000D01*
X154608000Y-130988000D02*
X154608000Y-130734000D01*
X136529000Y-145419000D02*
X136529000Y-146932999D01*
X135491500Y-145283000D02*
X136393000Y-145283000D01*
X141216500Y-142033000D02*
X141533000Y-142033000D01*
X131925000Y-148339000D02*
X131925000Y-147476500D01*
X141216500Y-142683000D02*
X141159000Y-142683000D01*
X135560000Y-147244000D02*
X132157500Y-147244000D01*
X136228999Y-147233000D02*
X135491500Y-147233000D01*
X132157500Y-147244000D02*
X130887500Y-145974000D01*
X143688000Y-141555500D02*
X145720000Y-141555500D01*
X154608000Y-128588000D02*
X154608000Y-130988000D01*
X134555000Y-142683000D02*
X134036000Y-142164000D01*
X141216500Y-142603500D02*
X141216500Y-142033000D01*
X125792000Y-138679000D02*
X125792000Y-140778000D01*
X131242000Y-149022000D02*
X131925000Y-148339000D01*
X129972000Y-145058500D02*
X130887500Y-145974000D01*
D37*
X131706000Y-107028000D02*
X133096000Y-107028000D01*
D36*
X135549000Y-147233000D02*
X135560000Y-147244000D01*
X130887500Y-145974000D02*
X129210000Y-145974000D01*
X130612500Y-149022000D02*
X131242000Y-149022000D01*
X136529000Y-146932999D02*
X136772999Y-146932999D01*
X136393000Y-145283000D02*
X136529000Y-145419000D01*
X139378000Y-111438000D02*
X140132000Y-112192000D01*
D37*
X126206000Y-107028000D02*
X124816000Y-107028000D01*
D36*
X125611000Y-147795000D02*
X125908000Y-147498000D01*
X131925000Y-147476500D02*
X132157500Y-147244000D01*
X133096000Y-107028000D02*
X133276000Y-106848000D01*
X134167000Y-142033000D02*
X134036000Y-142164000D01*
X125792000Y-142489000D02*
X125792000Y-141010000D01*
X136529000Y-146932999D02*
X136228999Y-147233000D01*
X135491500Y-142683000D02*
X134555000Y-142683000D01*
%TO.N,Net-(J6-Pin_3)*%
X132960000Y-128448000D02*
X137846000Y-128448000D01*
X137846000Y-128448000D02*
X141402000Y-132004000D01*
X141402000Y-134278000D02*
X141402000Y-135560000D01*
X141402000Y-135560000D02*
X142037000Y-136195000D01*
X141402000Y-132004000D02*
X141402000Y-132766000D01*
%TO.N,+3V3*%
X135491500Y-145933000D02*
X134503000Y-145933000D01*
X132534500Y-144726500D02*
X132534500Y-142037487D01*
X127611000Y-142583000D02*
X127517000Y-142489000D01*
X135491500Y-147883000D02*
X135491500Y-148699500D01*
X133007000Y-145199000D02*
X132534500Y-144726500D01*
X127517000Y-140640000D02*
X127517000Y-142489000D01*
X132534500Y-142037487D02*
X131137013Y-140640000D01*
X121590000Y-127837654D02*
X121590000Y-136322000D01*
X127517000Y-138679000D02*
X127517000Y-140640000D01*
X114224000Y-122098000D02*
X115614000Y-123488000D01*
X115614000Y-123488000D02*
X117240346Y-123488000D01*
X134036000Y-145466000D02*
X133769000Y-145199000D01*
X134503000Y-145933000D02*
X134036000Y-145466000D01*
X117240346Y-123488000D02*
X121590000Y-127837654D01*
X135491500Y-148699500D02*
X135560000Y-148768000D01*
X133769000Y-145199000D02*
X133007000Y-145199000D01*
X131137013Y-140640000D02*
X127517000Y-140640000D01*
%TO.N,Net-(U2-OUTR)*%
X140479001Y-143983000D02*
X140179000Y-143682999D01*
X140179000Y-143682999D02*
X140179000Y-139878000D01*
X141216500Y-143983000D02*
X140479001Y-143983000D01*
%TO.N,Net-(J6-Pin_1)*%
X144048000Y-133528000D02*
X144908000Y-134388000D01*
X133528000Y-133528000D02*
X137846000Y-133528000D01*
X133020000Y-133782000D02*
X133274000Y-133782000D01*
X135005000Y-136369000D02*
X137846000Y-133528000D01*
X135005000Y-138608000D02*
X135005000Y-136369000D01*
X133274000Y-133782000D02*
X133528000Y-133528000D01*
X137846000Y-133528000D02*
X144048000Y-133528000D01*
%TO.N,Net-(U1-XTAL1)*%
X137914000Y-112438000D02*
X137113568Y-112438000D01*
%TO.N,Net-(J4-CC1)*%
X128456000Y-108668000D02*
X128456000Y-107028000D01*
X126164000Y-110960000D02*
X128456000Y-108668000D01*
X128456000Y-107028000D02*
X129456000Y-107028000D01*
%TO.N,+5V*%
X129144000Y-148072000D02*
X127686000Y-149530000D01*
D38*
X130037000Y-105653000D02*
X130476000Y-106092000D01*
X127436000Y-107028000D02*
X127436000Y-106182490D01*
D36*
X127532500Y-145974000D02*
X127532500Y-149376500D01*
X128128000Y-149972000D02*
X127686000Y-149530000D01*
D38*
X130476000Y-106092000D02*
X130476000Y-107028000D01*
D36*
X130612500Y-149972000D02*
X128128000Y-149972000D01*
D38*
X127965490Y-105653000D02*
X128956000Y-105653000D01*
D36*
X127532500Y-149376500D02*
X127686000Y-149530000D01*
X130612500Y-148072000D02*
X129144000Y-148072000D01*
D38*
X127436000Y-106182490D02*
X127965490Y-105653000D01*
%TO.N,Net-(U2-CAPP)*%
D36*
X145354500Y-147233000D02*
X145720000Y-147598500D01*
X141216500Y-147233000D02*
X145354500Y-147233000D01*
%TO.N,Net-(U2-CAPM)*%
X145660500Y-145933000D02*
X145720000Y-145873500D01*
X141216500Y-145933000D02*
X145660500Y-145933000D01*
%TO.N,Net-(U1-RFO)*%
X137914000Y-110938000D02*
X141012000Y-110938000D01*
X141012000Y-110938000D02*
X141148000Y-110802000D01*
%TO.N,Net-(U2-VNEG)*%
X141216500Y-145283000D02*
X143717500Y-145283000D01*
X143717500Y-145283000D02*
X145720000Y-143280500D01*
%TO.N,/GPIO3{slash}SCL1*%
X101778000Y-106858000D02*
X103168000Y-108248000D01*
X121946346Y-112954000D02*
X117000346Y-108008000D01*
X114789685Y-106858000D02*
X114224000Y-106858000D01*
X133714000Y-112938000D02*
X133698000Y-112954000D01*
X117000346Y-108008000D02*
X115939685Y-108008000D01*
X115939685Y-108008000D02*
X114789685Y-106858000D01*
X133698000Y-112954000D02*
X121946346Y-112954000D01*
X112834000Y-108248000D02*
X114224000Y-106858000D01*
X103168000Y-108248000D02*
X112834000Y-108248000D01*
%TO.N,Net-(U2-OUTL)*%
X140479001Y-144633000D02*
X136830000Y-140983999D01*
X136830000Y-140983999D02*
X136830000Y-138608000D01*
X141216500Y-144633000D02*
X140479001Y-144633000D01*
%TO.N,/GPIO18{slash}PCM.CLK*%
X122352000Y-141708000D02*
X122352000Y-120066000D01*
X112446000Y-114478000D02*
X113596000Y-113328000D01*
X122352000Y-120066000D02*
X116764000Y-114478000D01*
X115614000Y-113328000D02*
X116764000Y-114478000D01*
X123850000Y-143206000D02*
X122352000Y-141708000D01*
X113596000Y-113328000D02*
X115614000Y-113328000D01*
X133681000Y-143333000D02*
X133528000Y-143180000D01*
X135491500Y-143333000D02*
X133681000Y-143333000D01*
X123977000Y-143333000D02*
X123850000Y-143206000D01*
X104318000Y-114478000D02*
X112446000Y-114478000D01*
%TO.N,/GPIO21{slash}PCM.DOUT*%
X136754500Y-149825278D02*
X136754500Y-150113500D01*
X113747654Y-148888000D02*
X115614000Y-148888000D01*
X112597654Y-150038000D02*
X113747654Y-148888000D01*
X104318000Y-150038000D02*
X112597654Y-150038000D01*
X136147456Y-143983000D02*
X138100000Y-145935544D01*
X138100000Y-145935544D02*
X138100000Y-148768000D01*
X137351000Y-149517000D02*
X137062778Y-149517000D01*
X135491500Y-143983000D02*
X136147456Y-143983000D01*
X117780000Y-151054000D02*
X116764000Y-150038000D01*
X135814000Y-151054000D02*
X117780000Y-151054000D01*
X137062778Y-149517000D02*
X136754500Y-149825278D01*
X115614000Y-148888000D02*
X116764000Y-150038000D01*
X136754500Y-150113500D02*
X135814000Y-151054000D01*
X138100000Y-148768000D02*
X137351000Y-149517000D01*
%TO.N,/GPIO19{slash}PCM.FS*%
X135491500Y-144633000D02*
X133880997Y-144633000D01*
X101778000Y-144958000D02*
X103048000Y-146228000D01*
X112954000Y-146228000D02*
X114224000Y-144958000D01*
X133880997Y-144633000D02*
X133528000Y-144280003D01*
X103048000Y-146228000D02*
X112954000Y-146228000D01*
%TO.N,Net-(U2-LDOO)*%
X132612500Y-145974000D02*
X133221500Y-146583000D01*
X131697000Y-145058500D02*
X132612500Y-145974000D01*
X133221500Y-146583000D02*
X135491500Y-146583000D01*
X131697000Y-142504209D02*
X131697000Y-145058500D01*
%TO.N,/GPIO4{slash}GPCLK0*%
X113074000Y-110548000D02*
X114224000Y-109398000D01*
X101778000Y-109398000D02*
X102928000Y-110548000D01*
X102928000Y-110548000D02*
X113074000Y-110548000D01*
%TO.N,/GPIO14{slash}TXD0*%
X115614000Y-108248000D02*
X116764000Y-109398000D01*
X113747654Y-108248000D02*
X115614000Y-108248000D01*
X104318000Y-109398000D02*
X112597654Y-109398000D01*
X112597654Y-109398000D02*
X113747654Y-108248000D01*
%TO.N,/GPIO15{slash}RXD0*%
X112597654Y-111938000D02*
X113747654Y-110788000D01*
X113747654Y-110788000D02*
X115614000Y-110788000D01*
X104318000Y-111938000D02*
X112597654Y-111938000D01*
X115614000Y-110788000D02*
X116764000Y-111938000D01*
%TO.N,/GPIO17*%
X113074000Y-115628000D02*
X114224000Y-114478000D01*
X101778000Y-114478000D02*
X102928000Y-115628000D01*
X102928000Y-115628000D02*
X113074000Y-115628000D01*
%TO.N,/GPIO27*%
X112954000Y-118288000D02*
X114224000Y-117018000D01*
X103048000Y-118288000D02*
X112954000Y-118288000D01*
X101778000Y-117018000D02*
X103048000Y-118288000D01*
%TO.N,/GPIO22*%
X112954000Y-120828000D02*
X114224000Y-119558000D01*
X103048000Y-120828000D02*
X112954000Y-120828000D01*
X101778000Y-119558000D02*
X103048000Y-120828000D01*
%TO.N,/GPIO23*%
X112597654Y-119558000D02*
X113747654Y-118408000D01*
X113747654Y-118408000D02*
X115614000Y-118408000D01*
X104318000Y-119558000D02*
X112597654Y-119558000D01*
X115614000Y-118408000D02*
X116764000Y-119558000D01*
%TO.N,/GPIO24*%
X104318000Y-122098000D02*
X112597654Y-122098000D01*
X113747654Y-120948000D02*
X115614000Y-120948000D01*
X115614000Y-120948000D02*
X116764000Y-122098000D01*
X112597654Y-122098000D02*
X113747654Y-120948000D01*
%TO.N,/GPIO10{slash}SPI0.MOSI*%
X102928000Y-125788000D02*
X113074000Y-125788000D01*
X101778000Y-124638000D02*
X102928000Y-125788000D01*
X113074000Y-125788000D02*
X114224000Y-124638000D01*
%TO.N,/GPIO9{slash}SPI0.MISO*%
X101778000Y-127178000D02*
X102928000Y-128328000D01*
X113074000Y-128328000D02*
X114224000Y-127178000D01*
X102928000Y-128328000D02*
X113074000Y-128328000D01*
%TO.N,/GPIO25*%
X113747654Y-126028000D02*
X115614000Y-126028000D01*
X115614000Y-126028000D02*
X116764000Y-127178000D01*
X112597654Y-127178000D02*
X113747654Y-126028000D01*
X104318000Y-127178000D02*
X112597654Y-127178000D01*
%TO.N,/GPIO11{slash}SPI0.SCLK*%
X113074000Y-130868000D02*
X114224000Y-129718000D01*
X102928000Y-130868000D02*
X113074000Y-130868000D01*
X101778000Y-129718000D02*
X102928000Y-130868000D01*
%TO.N,/GPIO8{slash}SPI0.CE0*%
X104318000Y-129718000D02*
X112597654Y-129718000D01*
X113747654Y-128568000D02*
X115614000Y-128568000D01*
X112597654Y-129718000D02*
X113747654Y-128568000D01*
X115614000Y-128568000D02*
X116764000Y-129718000D01*
%TO.N,/GPIO7{slash}SPI0.CE1*%
X113747654Y-131108000D02*
X115614000Y-131108000D01*
X104318000Y-132258000D02*
X112597654Y-132258000D01*
X115614000Y-131108000D02*
X116764000Y-132258000D01*
X112597654Y-132258000D02*
X113747654Y-131108000D01*
%TO.N,/ID_SDA*%
X101778000Y-134798000D02*
X103048000Y-136068000D01*
X112954000Y-136068000D02*
X114224000Y-134798000D01*
X103048000Y-136068000D02*
X112954000Y-136068000D01*
%TO.N,/ID_SCL*%
X112446000Y-134798000D02*
X113596000Y-133648000D01*
X115614000Y-133648000D02*
X116764000Y-134798000D01*
X104318000Y-134798000D02*
X112446000Y-134798000D01*
X113596000Y-133648000D02*
X115614000Y-133648000D01*
%TO.N,/GPIO5*%
X112834000Y-138728000D02*
X114224000Y-137338000D01*
X103168000Y-138728000D02*
X112834000Y-138728000D01*
X101778000Y-137338000D02*
X103168000Y-138728000D01*
%TO.N,/GPIO6*%
X101778000Y-139878000D02*
X103168000Y-141268000D01*
X103168000Y-141268000D02*
X112834000Y-141268000D01*
X112834000Y-141268000D02*
X114224000Y-139878000D01*
%TO.N,/GPIO12{slash}PWM0*%
X112597654Y-139878000D02*
X113747654Y-138728000D01*
X104318000Y-139878000D02*
X112597654Y-139878000D01*
X113747654Y-138728000D02*
X115614000Y-138728000D01*
X115614000Y-138728000D02*
X116764000Y-139878000D01*
%TO.N,/GPIO13{slash}PWM1*%
X101778000Y-142418000D02*
X103168000Y-143808000D01*
X103168000Y-143808000D02*
X112834000Y-143808000D01*
X112834000Y-143808000D02*
X114224000Y-142418000D01*
%TO.N,/GPIO16*%
X115614000Y-143808000D02*
X116764000Y-144958000D01*
X104318000Y-144958000D02*
X112597654Y-144958000D01*
X113747654Y-143808000D02*
X115614000Y-143808000D01*
X112597654Y-144958000D02*
X113747654Y-143808000D01*
%TO.N,/GPIO26*%
X112834000Y-148888000D02*
X114224000Y-147498000D01*
X103168000Y-148888000D02*
X112834000Y-148888000D01*
X101778000Y-147498000D02*
X103168000Y-148888000D01*
%TO.N,/GPIO20{slash}PCM.DIN*%
X104318000Y-147498000D02*
X112597654Y-147498000D01*
X113747654Y-146348000D02*
X115614000Y-146348000D01*
X112597654Y-147498000D02*
X113747654Y-146348000D01*
X115614000Y-146348000D02*
X116764000Y-147498000D01*
%TD*%
%TA.AperFunction,Conductor*%
%TO.N,+3V3*%
G36*
X123057039Y-99966185D02*
G01*
X123102794Y-100018989D01*
X123114000Y-100070500D01*
X123114000Y-109528000D01*
X123094315Y-109595039D01*
X123041511Y-109640794D01*
X122990000Y-109652000D01*
X122228840Y-109652000D01*
X122161801Y-109632315D01*
X122121453Y-109590000D01*
X122096462Y-109546714D01*
X122096458Y-109546709D01*
X119340319Y-106790570D01*
X119306834Y-106729247D01*
X119304000Y-106702889D01*
X119304000Y-103302000D01*
X117053120Y-103302000D01*
X117028929Y-103299617D01*
X116867468Y-103267500D01*
X116867465Y-103267500D01*
X116660535Y-103267500D01*
X116660531Y-103267500D01*
X116499071Y-103299617D01*
X116474880Y-103302000D01*
X114513120Y-103302000D01*
X114488929Y-103299617D01*
X114327468Y-103267500D01*
X114327465Y-103267500D01*
X114120535Y-103267500D01*
X114120531Y-103267500D01*
X113959071Y-103299617D01*
X113934880Y-103302000D01*
X104607120Y-103302000D01*
X104582929Y-103299617D01*
X104421468Y-103267500D01*
X104421465Y-103267500D01*
X104214535Y-103267500D01*
X104214531Y-103267500D01*
X104053071Y-103299617D01*
X104028880Y-103302000D01*
X102067120Y-103302000D01*
X102042929Y-103299617D01*
X101881468Y-103267500D01*
X101881465Y-103267500D01*
X101674535Y-103267500D01*
X101674531Y-103267500D01*
X101513071Y-103299617D01*
X101488880Y-103302000D01*
X100762000Y-103302000D01*
X100762000Y-104028879D01*
X100759617Y-104053070D01*
X100727500Y-104214531D01*
X100727500Y-104421466D01*
X100759617Y-104582927D01*
X100762000Y-104607119D01*
X100762000Y-106568879D01*
X100759617Y-106593070D01*
X100727500Y-106754531D01*
X100727500Y-106961466D01*
X100759617Y-107122927D01*
X100762000Y-107147119D01*
X100762000Y-109108879D01*
X100759617Y-109133070D01*
X100727500Y-109294531D01*
X100727500Y-109501466D01*
X100759617Y-109662927D01*
X100762000Y-109687119D01*
X100762000Y-111648879D01*
X100759617Y-111673070D01*
X100727500Y-111834531D01*
X100727500Y-111834535D01*
X100727500Y-112041465D01*
X100746602Y-112137500D01*
X100759617Y-112202927D01*
X100762000Y-112227119D01*
X100762000Y-114188879D01*
X100759617Y-114213070D01*
X100727500Y-114374531D01*
X100727500Y-114581466D01*
X100759617Y-114742927D01*
X100762000Y-114767119D01*
X100762000Y-116728879D01*
X100759617Y-116753070D01*
X100727500Y-116914531D01*
X100727500Y-117121466D01*
X100759617Y-117282927D01*
X100762000Y-117307119D01*
X100762000Y-119268879D01*
X100759617Y-119293070D01*
X100727500Y-119454531D01*
X100727500Y-119661466D01*
X100759617Y-119822927D01*
X100762000Y-119847119D01*
X100762000Y-120574000D01*
X101488880Y-120574000D01*
X101513070Y-120576382D01*
X101674532Y-120608499D01*
X101674534Y-120608500D01*
X101674535Y-120608500D01*
X101881466Y-120608500D01*
X101893300Y-120606145D01*
X101979969Y-120588906D01*
X102049556Y-120595133D01*
X102081619Y-120613695D01*
X102337146Y-120818117D01*
X102377198Y-120875368D01*
X102379941Y-120945184D01*
X102344502Y-121005399D01*
X102282134Y-121036896D01*
X102221366Y-121032876D01*
X102047293Y-120976317D01*
X101868506Y-120948000D01*
X101687494Y-120948000D01*
X101508706Y-120976317D01*
X101336555Y-121032251D01*
X101336552Y-121032252D01*
X101175270Y-121114431D01*
X101175268Y-121114432D01*
X101118511Y-121155667D01*
X101118511Y-121155668D01*
X101592823Y-121629980D01*
X101585007Y-121632075D01*
X101470993Y-121697901D01*
X101377901Y-121790993D01*
X101312075Y-121905007D01*
X101309980Y-121912823D01*
X100835668Y-121438511D01*
X100835667Y-121438511D01*
X100794432Y-121495268D01*
X100794431Y-121495270D01*
X100712252Y-121656552D01*
X100712251Y-121656555D01*
X100656317Y-121828706D01*
X100628000Y-122007493D01*
X100628000Y-122188506D01*
X100656317Y-122367293D01*
X100712251Y-122539444D01*
X100712252Y-122539447D01*
X100794434Y-122700734D01*
X100835667Y-122757487D01*
X100835668Y-122757487D01*
X101309980Y-122283176D01*
X101312075Y-122290993D01*
X101377901Y-122405007D01*
X101470993Y-122498099D01*
X101585007Y-122563925D01*
X101592821Y-122566018D01*
X101118510Y-123040330D01*
X101118511Y-123040331D01*
X101175265Y-123081565D01*
X101336552Y-123163747D01*
X101336555Y-123163748D01*
X101508706Y-123219682D01*
X101687494Y-123248000D01*
X101868506Y-123248000D01*
X102047293Y-123219682D01*
X102221364Y-123163124D01*
X102291205Y-123161129D01*
X102351038Y-123197209D01*
X102381866Y-123259910D01*
X102373901Y-123329325D01*
X102337144Y-123377883D01*
X102081619Y-123582303D01*
X102016973Y-123608811D01*
X101979966Y-123607093D01*
X101881465Y-123587500D01*
X101674535Y-123587500D01*
X101674531Y-123587500D01*
X101513071Y-123619617D01*
X101488880Y-123622000D01*
X100124000Y-123622000D01*
X100056961Y-123602315D01*
X100011206Y-123549511D01*
X100000000Y-123498000D01*
X100000000Y-100910842D01*
X100628000Y-100910842D01*
X100628000Y-102645156D01*
X101309980Y-101963176D01*
X101312075Y-101970993D01*
X101377901Y-102085007D01*
X101470993Y-102178099D01*
X101585007Y-102243925D01*
X101592823Y-102246019D01*
X100910842Y-102927998D01*
X100910843Y-102927999D01*
X102645156Y-102927999D01*
X102645156Y-102927998D01*
X101963176Y-102246019D01*
X101970993Y-102243925D01*
X102085007Y-102178099D01*
X102178099Y-102085007D01*
X102243925Y-101970993D01*
X102246019Y-101963176D01*
X102927998Y-102645156D01*
X102927999Y-102645155D01*
X102927999Y-101674530D01*
X103267500Y-101674530D01*
X103267500Y-101881469D01*
X103307868Y-102084412D01*
X103307870Y-102084420D01*
X103387058Y-102275596D01*
X103502024Y-102447657D01*
X103648342Y-102593975D01*
X103648345Y-102593977D01*
X103820402Y-102708941D01*
X104011580Y-102788130D01*
X104214530Y-102828499D01*
X104214534Y-102828500D01*
X104214535Y-102828500D01*
X104421466Y-102828500D01*
X104421467Y-102828499D01*
X104624420Y-102788130D01*
X104815598Y-102708941D01*
X104987655Y-102593977D01*
X105133977Y-102447655D01*
X105248941Y-102275598D01*
X105328130Y-102084420D01*
X105350692Y-101970993D01*
X105364327Y-101902447D01*
X105368499Y-101881469D01*
X105368500Y-101881466D01*
X105368500Y-101674534D01*
X105368499Y-101674530D01*
X105349298Y-101578000D01*
X105328130Y-101471580D01*
X105248941Y-101280402D01*
X105133977Y-101108345D01*
X105133975Y-101108342D01*
X104987657Y-100962024D01*
X104869695Y-100883205D01*
X113074000Y-100883205D01*
X113074000Y-101578000D01*
X113762120Y-101578000D01*
X113758075Y-101585007D01*
X113724000Y-101712174D01*
X113724000Y-101843826D01*
X113758075Y-101970993D01*
X113762120Y-101978000D01*
X113074001Y-101978000D01*
X113074001Y-102672785D01*
X113074002Y-102672808D01*
X113076908Y-102697869D01*
X113076909Y-102697873D01*
X113122211Y-102800474D01*
X113122214Y-102800479D01*
X113201520Y-102879785D01*
X113201525Y-102879788D01*
X113304123Y-102925089D01*
X113329206Y-102927999D01*
X114023999Y-102927999D01*
X114024000Y-102927998D01*
X114024000Y-102239879D01*
X114031007Y-102243925D01*
X114158174Y-102278000D01*
X114289826Y-102278000D01*
X114416993Y-102243925D01*
X114424000Y-102239879D01*
X114424000Y-102927999D01*
X115118786Y-102927999D01*
X115118808Y-102927997D01*
X115143869Y-102925091D01*
X115143873Y-102925090D01*
X115246474Y-102879788D01*
X115246479Y-102879785D01*
X115325785Y-102800479D01*
X115325788Y-102800474D01*
X115371089Y-102697877D01*
X115371089Y-102697875D01*
X115373999Y-102672794D01*
X115374000Y-102672791D01*
X115374000Y-101978000D01*
X114685880Y-101978000D01*
X114689925Y-101970993D01*
X114724000Y-101843826D01*
X114724000Y-101712174D01*
X114713913Y-101674530D01*
X115713500Y-101674530D01*
X115713500Y-101881469D01*
X115753868Y-102084412D01*
X115753870Y-102084420D01*
X115833058Y-102275596D01*
X115948024Y-102447657D01*
X116094342Y-102593975D01*
X116094345Y-102593977D01*
X116266402Y-102708941D01*
X116457580Y-102788130D01*
X116660530Y-102828499D01*
X116660534Y-102828500D01*
X116660535Y-102828500D01*
X116867466Y-102828500D01*
X116867467Y-102828499D01*
X117070420Y-102788130D01*
X117261598Y-102708941D01*
X117433655Y-102593977D01*
X117579977Y-102447655D01*
X117694941Y-102275598D01*
X117774130Y-102084420D01*
X117814500Y-101881465D01*
X117814500Y-101674535D01*
X117774130Y-101471580D01*
X117694941Y-101280402D01*
X117579977Y-101108345D01*
X117579975Y-101108342D01*
X117433657Y-100962024D01*
X117278155Y-100858122D01*
X117261598Y-100847059D01*
X117070420Y-100767870D01*
X117070412Y-100767868D01*
X116867469Y-100727500D01*
X116867465Y-100727500D01*
X116660535Y-100727500D01*
X116660530Y-100727500D01*
X116457587Y-100767868D01*
X116457579Y-100767870D01*
X116266403Y-100847058D01*
X116094342Y-100962024D01*
X115948024Y-101108342D01*
X115833058Y-101280403D01*
X115753870Y-101471579D01*
X115753868Y-101471587D01*
X115713500Y-101674530D01*
X114713913Y-101674530D01*
X114689925Y-101585007D01*
X114685880Y-101578000D01*
X115373999Y-101578000D01*
X115373999Y-100883214D01*
X115373997Y-100883191D01*
X115371091Y-100858130D01*
X115371090Y-100858126D01*
X115325788Y-100755525D01*
X115325785Y-100755520D01*
X115246479Y-100676214D01*
X115246474Y-100676211D01*
X115143876Y-100630910D01*
X115118794Y-100628000D01*
X114424000Y-100628000D01*
X114424000Y-101316120D01*
X114416993Y-101312075D01*
X114289826Y-101278000D01*
X114158174Y-101278000D01*
X114031007Y-101312075D01*
X114024000Y-101316120D01*
X114024000Y-100628000D01*
X113329214Y-100628000D01*
X113329191Y-100628002D01*
X113304130Y-100630908D01*
X113304126Y-100630909D01*
X113201525Y-100676211D01*
X113201520Y-100676214D01*
X113122214Y-100755520D01*
X113122211Y-100755525D01*
X113076910Y-100858122D01*
X113076910Y-100858124D01*
X113074000Y-100883205D01*
X104869695Y-100883205D01*
X104832155Y-100858122D01*
X104815598Y-100847059D01*
X104624420Y-100767870D01*
X104624412Y-100767868D01*
X104421469Y-100727500D01*
X104421465Y-100727500D01*
X104214535Y-100727500D01*
X104214530Y-100727500D01*
X104011587Y-100767868D01*
X104011579Y-100767870D01*
X103820403Y-100847058D01*
X103648342Y-100962024D01*
X103502024Y-101108342D01*
X103387058Y-101280403D01*
X103307870Y-101471579D01*
X103307868Y-101471587D01*
X103267500Y-101674530D01*
X102927999Y-101674530D01*
X102927999Y-100910843D01*
X102927998Y-100910842D01*
X102246019Y-101592822D01*
X102243925Y-101585007D01*
X102178099Y-101470993D01*
X102085007Y-101377901D01*
X101970993Y-101312075D01*
X101963176Y-101309980D01*
X102645156Y-100628000D01*
X100910842Y-100628000D01*
X101592823Y-101309980D01*
X101585007Y-101312075D01*
X101470993Y-101377901D01*
X101377901Y-101470993D01*
X101312075Y-101585007D01*
X101309980Y-101592822D01*
X100628000Y-100910842D01*
X100000000Y-100910842D01*
X100000000Y-100253896D01*
X100019685Y-100186857D01*
X100072489Y-100141102D01*
X100122605Y-100129904D01*
X116444877Y-99946507D01*
X116446270Y-99946500D01*
X122990000Y-99946500D01*
X123057039Y-99966185D01*
G37*
%TD.AperFunction*%
%TA.AperFunction,Conductor*%
G36*
X102893060Y-121262873D02*
G01*
X102894801Y-121264241D01*
X102984966Y-121336373D01*
X103255462Y-121552770D01*
X103295514Y-121610019D01*
X103302000Y-121649597D01*
X103302000Y-121808879D01*
X103299617Y-121833070D01*
X103267500Y-121994531D01*
X103267500Y-121994535D01*
X103267500Y-122201465D01*
X103292490Y-122327101D01*
X103299617Y-122362927D01*
X103302000Y-122387119D01*
X103302000Y-122546402D01*
X103282315Y-122613441D01*
X103255462Y-122643230D01*
X102894801Y-122931758D01*
X102830155Y-122958266D01*
X102761440Y-122945616D01*
X102710473Y-122897824D01*
X102693435Y-122830063D01*
X102715735Y-122763848D01*
X102717021Y-122762044D01*
X102761567Y-122700731D01*
X102843747Y-122539447D01*
X102843748Y-122539444D01*
X102899682Y-122367293D01*
X102928000Y-122188506D01*
X102928000Y-122007493D01*
X102899682Y-121828706D01*
X102843748Y-121656555D01*
X102843747Y-121656552D01*
X102761565Y-121495265D01*
X102717021Y-121433954D01*
X102693541Y-121368148D01*
X102709367Y-121300094D01*
X102759473Y-121251399D01*
X102827951Y-121237524D01*
X102893060Y-121262873D01*
G37*
%TD.AperFunction*%
%TD*%
M02*
