%TF.GenerationSoftware,KiCad,Pcbnew,10.0.5*%
%TF.CreationDate,2026-09-05T13:53:24+02:00*%
%TF.ProjectId,FMTransmitterRaspi,464d5472-616e-4736-9d69-747465725261,rev?*%
%TF.SameCoordinates,Original*%
%TF.FileFunction,Paste,Top*%
%TF.FilePolarity,Positive*%
%FSLAX46Y46*%
G04 Gerber Fmt 4.6, Leading zero omitted, Abs format (unit mm)*
G04 Created by KiCad (PCBNEW 10.0.5) date 2026-09-05 13:53:24*
%MOMM*%
%LPD*%
G01*
G04 APERTURE LIST*
G04 Aperture macros list*
%AMRoundRect*
0 Rectangle with rounded corners*
0 $1 Rounding radius*
0 $2 $3 $4 $5 $6 $7 $8 $9 X,Y pos of 4 corners*
0 Add a 4 corners polygon primitive as box body*
4,1,4,$2,$3,$4,$5,$6,$7,$8,$9,$2,$3,0*
0 Add four circle primitives for the rounded corners*
1,1,$1+$1,$2,$3*
1,1,$1+$1,$4,$5*
1,1,$1+$1,$6,$7*
1,1,$1+$1,$8,$9*
0 Add four rect primitives between the rounded corners*
20,1,$1+$1,$2,$3,$4,$5,0*
20,1,$1+$1,$4,$5,$6,$7,0*
20,1,$1+$1,$6,$7,$8,$9,0*
20,1,$1+$1,$8,$9,$2,$3,0*%
G04 Aperture macros list end*
%ADD10RoundRect,0.237500X0.300000X0.237500X-0.300000X0.237500X-0.300000X-0.237500X0.300000X-0.237500X0*%
%ADD11RoundRect,0.250000X-0.337500X-0.475000X0.337500X-0.475000X0.337500X0.475000X-0.337500X0.475000X0*%
%ADD12RoundRect,0.237500X0.237500X-0.300000X0.237500X0.300000X-0.237500X0.300000X-0.237500X-0.300000X0*%
%ADD13RoundRect,0.237500X-0.250000X-0.237500X0.250000X-0.237500X0.250000X0.237500X-0.250000X0.237500X0*%
%ADD14RoundRect,0.300000X-0.700000X1.200000X-0.700000X-1.200000X0.700000X-1.200000X0.700000X1.200000X0*%
%ADD15RoundRect,0.250000X-0.750000X-2.250000X0.750000X-2.250000X0.750000X2.250000X-0.750000X2.250000X0*%
%ADD16RoundRect,0.175000X0.175000X0.625000X-0.175000X0.625000X-0.175000X-0.625000X0.175000X-0.625000X0*%
%ADD17RoundRect,0.200000X0.200000X0.600000X-0.200000X0.600000X-0.200000X-0.600000X0.200000X-0.600000X0*%
%ADD18RoundRect,0.225000X0.225000X0.575000X-0.225000X0.575000X-0.225000X-0.575000X0.225000X-0.575000X0*%
%ADD19RoundRect,0.237500X-0.300000X-0.237500X0.300000X-0.237500X0.300000X0.237500X-0.300000X0.237500X0*%
%ADD20RoundRect,0.250000X0.350000X-0.275000X0.350000X0.275000X-0.350000X0.275000X-0.350000X-0.275000X0*%
%ADD21RoundRect,0.087500X0.662500X0.087500X-0.662500X0.087500X-0.662500X-0.087500X0.662500X-0.087500X0*%
%ADD22RoundRect,0.100000X0.637500X0.100000X-0.637500X0.100000X-0.637500X-0.100000X0.637500X-0.100000X0*%
%ADD23RoundRect,0.237500X0.250000X0.237500X-0.250000X0.237500X-0.250000X-0.237500X0.250000X-0.237500X0*%
%ADD24RoundRect,0.150000X-0.512500X-0.150000X0.512500X-0.150000X0.512500X0.150000X-0.512500X0.150000X0*%
%ADD25RoundRect,0.250000X0.337500X0.475000X-0.337500X0.475000X-0.337500X-0.475000X0.337500X-0.475000X0*%
G04 APERTURE END LIST*
D10*
%TO.C,C17*%
X129972000Y-142504209D03*
X131697000Y-142504209D03*
%TD*%
D11*
%TO.C,C21*%
X141888500Y-150292000D03*
X143963500Y-150292000D03*
%TD*%
D12*
%TO.C,C4*%
X131242000Y-111276500D03*
X131242000Y-109551500D03*
%TD*%
D13*
%TO.C,R3*%
X139624000Y-138608000D03*
X141449000Y-138608000D03*
%TD*%
D12*
%TO.C,C8*%
X144704000Y-115187000D03*
X144704000Y-113462000D03*
%TD*%
D10*
%TO.C,C22*%
X139317000Y-150292000D03*
X137592000Y-150292000D03*
%TD*%
D14*
%TO.C,J5*%
X150908000Y-134388000D03*
X153608000Y-127588000D03*
X154608000Y-134388000D03*
X146608000Y-127588000D03*
X144908000Y-134388000D03*
%TD*%
D15*
%TO.C,Y2*%
X138950000Y-121772000D03*
%TD*%
D16*
%TO.C,J4*%
X129456000Y-107028000D03*
D17*
X127436000Y-107028000D03*
D18*
X126206000Y-107028000D03*
D16*
X128456000Y-107028000D03*
D17*
X130476000Y-107028000D03*
D18*
X131706000Y-107028000D03*
%TD*%
D12*
%TO.C,C7*%
X141656000Y-115240000D03*
X141656000Y-113515000D03*
%TD*%
D10*
%TO.C,C13*%
X127517000Y-138679000D03*
X125792000Y-138679000D03*
%TD*%
D12*
%TO.C,C11*%
X145720000Y-147598500D03*
X145720000Y-145873500D03*
%TD*%
D19*
%TO.C,C3*%
X143688000Y-117780000D03*
X141963000Y-117780000D03*
%TD*%
D20*
%TO.C,L1*%
X141148000Y-110802000D03*
X141148000Y-108502000D03*
%TD*%
D12*
%TO.C,C15*%
X145720000Y-143280500D03*
X145720000Y-141555500D03*
%TD*%
D21*
%TO.C,U1*%
X137914000Y-112938000D03*
X137914000Y-112438000D03*
X137914000Y-111938000D03*
X137914000Y-111438000D03*
X137914000Y-110938000D03*
X133714000Y-110938000D03*
X133714000Y-111438000D03*
X133714000Y-111938000D03*
X133714000Y-112438000D03*
X133714000Y-112938000D03*
%TD*%
D10*
%TO.C,C2*%
X136729500Y-115240000D03*
X138454500Y-115240000D03*
%TD*%
D22*
%TO.C,U2*%
X141216500Y-147883000D03*
X141216500Y-147233000D03*
X141216500Y-146583000D03*
X141216500Y-145933000D03*
X141216500Y-145283000D03*
X141216500Y-144633000D03*
X141216500Y-143983000D03*
X141216500Y-143333000D03*
X141216500Y-142683000D03*
X141216500Y-142033000D03*
X135491500Y-142033000D03*
X135491500Y-142683000D03*
X135491500Y-143333000D03*
X135491500Y-143983000D03*
X135491500Y-144633000D03*
X135491500Y-145283000D03*
X135491500Y-145933000D03*
X135491500Y-146583000D03*
X135491500Y-147233000D03*
X135491500Y-147883000D03*
%TD*%
D10*
%TO.C,C20*%
X127532500Y-145974000D03*
X125807500Y-145974000D03*
%TD*%
%TO.C,C12*%
X127517000Y-142489000D03*
X125792000Y-142489000D03*
%TD*%
D23*
%TO.C,R1*%
X136830000Y-138608000D03*
X135005000Y-138608000D03*
%TD*%
D24*
%TO.C,U3*%
X130612500Y-148072000D03*
X130612500Y-149022000D03*
X130612500Y-149972000D03*
X132887500Y-149972000D03*
X132887500Y-148072000D03*
%TD*%
D25*
%TO.C,C19*%
X127686000Y-149530000D03*
X125611000Y-149530000D03*
%TD*%
D23*
%TO.C,R2*%
X126164000Y-110960000D03*
X124339000Y-110960000D03*
%TD*%
D19*
%TO.C,C1*%
X143333500Y-111176000D03*
X145058500Y-111176000D03*
%TD*%
D10*
%TO.C,C16*%
X132612500Y-145974000D03*
X130887500Y-145974000D03*
%TD*%
M02*
