%TF.GenerationSoftware,KiCad,Pcbnew,10.0.5*%
%TF.CreationDate,2026-09-05T13:53:24+02:00*%
%TF.ProjectId,FMTransmitterRaspi,464d5472-616e-4736-9d69-747465725261,rev?*%
%TF.SameCoordinates,Original*%
%TF.FileFunction,Legend,Bot*%
%TF.FilePolarity,Positive*%
%FSLAX46Y46*%
G04 Gerber Fmt 4.6, Leading zero omitted, Abs format (unit mm)*
G04 Created by KiCad (PCBNEW 10.0.5) date 2026-09-05 13:53:24*
%MOMM*%
%LPD*%
G01*
G04 APERTURE LIST*
%ADD10C,0.150000*%
%ADD11C,0.120000*%
G04 APERTURE END LIST*
D10*
X107445333Y-101486819D02*
X107445333Y-102201104D01*
X107445333Y-102201104D02*
X107492952Y-102343961D01*
X107492952Y-102343961D02*
X107588190Y-102439200D01*
X107588190Y-102439200D02*
X107731047Y-102486819D01*
X107731047Y-102486819D02*
X107826285Y-102486819D01*
X107016761Y-101582057D02*
X106969142Y-101534438D01*
X106969142Y-101534438D02*
X106873904Y-101486819D01*
X106873904Y-101486819D02*
X106635809Y-101486819D01*
X106635809Y-101486819D02*
X106540571Y-101534438D01*
X106540571Y-101534438D02*
X106492952Y-101582057D01*
X106492952Y-101582057D02*
X106445333Y-101677295D01*
X106445333Y-101677295D02*
X106445333Y-101772533D01*
X106445333Y-101772533D02*
X106492952Y-101915390D01*
X106492952Y-101915390D02*
X107064380Y-102486819D01*
X107064380Y-102486819D02*
X106445333Y-102486819D01*
%TO.C,J2*%
D11*
X105648000Y-100448000D02*
X105648000Y-151368000D01*
X105648000Y-100448000D02*
X103048000Y-100448000D01*
X105648000Y-151368000D02*
X100448000Y-151368000D01*
X103048000Y-100448000D02*
X103048000Y-103048000D01*
X103048000Y-103048000D02*
X100448000Y-103048000D01*
X101778000Y-100448000D02*
X100448000Y-100448000D01*
X100448000Y-100448000D02*
X100448000Y-101778000D01*
X100448000Y-103048000D02*
X100448000Y-151368000D01*
%TD*%
M02*
