%TF.GenerationSoftware,KiCad,Pcbnew,10.0.5*%
%TF.CreationDate,2026-09-05T13:53:24+02:00*%
%TF.ProjectId,FMTransmitterRaspi,464d5472-616e-4736-9d69-747465725261,rev?*%
%TF.SameCoordinates,Original*%
%TF.FileFunction,Soldermask,Bot*%
%TF.FilePolarity,Negative*%
%FSLAX46Y46*%
G04 Gerber Fmt 4.6, Leading zero omitted, Abs format (unit mm)*
G04 Created by KiCad (PCBNEW 10.0.5) date 2026-09-05 13:53:24*
%MOMM*%
%LPD*%
G01*
G04 APERTURE LIST*
G04 Aperture macros list*
%AMRoundRect*
0 Rectangle with rounded corners*
0 $1 Rounding radius*
0 $2 $3 $4 $5 $6 $7 $8 $9 X,Y pos of 4 corners*
0 Add a 4 corners polygon primitive as box body*
4,1,4,$2,$3,$4,$5,$6,$7,$8,$9,$2,$3,0*
0 Add four circle primitives for the rounded corners*
1,1,$1+$1,$2,$3*
1,1,$1+$1,$4,$5*
1,1,$1+$1,$6,$7*
1,1,$1+$1,$8,$9*
0 Add four rect primitives between the rounded corners*
20,1,$1+$1,$2,$3,$4,$5,0*
20,1,$1+$1,$4,$5,$6,$7,0*
20,1,$1+$1,$6,$7,$8,$9,0*
20,1,$1+$1,$8,$9,$2,$3,0*%
G04 Aperture macros list end*
%ADD10R,1.700000X1.700000*%
%ADD11C,1.700000*%
%ADD12C,1.600000*%
%ADD13C,1.500000*%
%ADD14C,1.000000*%
%ADD15O,1.000000X1.700000*%
%ADD16RoundRect,0.250001X1.149999X-1.149999X1.149999X1.149999X-1.149999X1.149999X-1.149999X-1.149999X0*%
%ADD17C,2.800000*%
G04 APERTURE END LIST*
D10*
%TO.C,J2*%
X101778000Y-101778000D03*
D11*
X104318000Y-101778000D03*
X101778000Y-104318000D03*
X104318000Y-104318000D03*
X101778000Y-106858000D03*
X104318000Y-106858000D03*
X101778000Y-109398000D03*
X104318000Y-109398000D03*
X101778000Y-111938000D03*
X104318000Y-111938000D03*
X101778000Y-114478000D03*
X104318000Y-114478000D03*
X101778000Y-117018000D03*
X104318000Y-117018000D03*
X101778000Y-119558000D03*
X104318000Y-119558000D03*
X101778000Y-122098000D03*
X104318000Y-122098000D03*
X101778000Y-124638000D03*
X104318000Y-124638000D03*
X101778000Y-127178000D03*
X104318000Y-127178000D03*
X101778000Y-129718000D03*
X104318000Y-129718000D03*
X101778000Y-132258000D03*
X104318000Y-132258000D03*
X101778000Y-134798000D03*
X104318000Y-134798000D03*
X101778000Y-137338000D03*
X104318000Y-137338000D03*
X101778000Y-139878000D03*
X104318000Y-139878000D03*
X101778000Y-142418000D03*
X104318000Y-142418000D03*
X101778000Y-144958000D03*
X104318000Y-144958000D03*
X101778000Y-147498000D03*
X104318000Y-147498000D03*
X101778000Y-150038000D03*
X104318000Y-150038000D03*
%TD*%
D12*
%TO.C,C18*%
X132960000Y-128448000D03*
X125460000Y-128448000D03*
%TD*%
D13*
%TO.C,C14*%
X133020000Y-123034000D03*
X133020000Y-118034000D03*
%TD*%
D14*
%TO.C,Y2*%
X139800000Y-117272000D03*
X138100000Y-117272000D03*
%TD*%
D15*
%TO.C,J4*%
X133276000Y-106848000D03*
X133276000Y-103048000D03*
X124636000Y-106848000D03*
X124636000Y-103048000D03*
%TD*%
D10*
%TO.C,J6*%
X137846000Y-133528000D03*
D11*
X137846000Y-130988000D03*
X137846000Y-128448000D03*
%TD*%
D13*
%TO.C,C9*%
X125908000Y-123074000D03*
X125908000Y-118074000D03*
%TD*%
D16*
%TO.C,J1*%
X151562000Y-112954000D03*
D17*
X151562000Y-107954000D03*
X151562000Y-102954000D03*
%TD*%
D13*
%TO.C,Y1*%
X146138000Y-121590000D03*
X141238000Y-121590000D03*
%TD*%
D10*
%TO.C,J3*%
X114224000Y-101778000D03*
D11*
X116764000Y-101778000D03*
X114224000Y-104318000D03*
X116764000Y-104318000D03*
X114224000Y-106858000D03*
X116764000Y-106858000D03*
X114224000Y-109398000D03*
X116764000Y-109398000D03*
X114224000Y-111938000D03*
X116764000Y-111938000D03*
X114224000Y-114478000D03*
X116764000Y-114478000D03*
X114224000Y-117018000D03*
X116764000Y-117018000D03*
X114224000Y-119558000D03*
X116764000Y-119558000D03*
X114224000Y-122098000D03*
X116764000Y-122098000D03*
X114224000Y-124638000D03*
X116764000Y-124638000D03*
X114224000Y-127178000D03*
X116764000Y-127178000D03*
X114224000Y-129718000D03*
X116764000Y-129718000D03*
X114224000Y-132258000D03*
X116764000Y-132258000D03*
X114224000Y-134798000D03*
X116764000Y-134798000D03*
X114224000Y-137338000D03*
X116764000Y-137338000D03*
X114224000Y-139878000D03*
X116764000Y-139878000D03*
X114224000Y-142418000D03*
X116764000Y-142418000D03*
X114224000Y-144958000D03*
X116764000Y-144958000D03*
X114224000Y-147498000D03*
X116764000Y-147498000D03*
X114224000Y-150038000D03*
X116764000Y-150038000D03*
%TD*%
D12*
%TO.C,C10*%
X133020000Y-133782000D03*
X125520000Y-133782000D03*
%TD*%
M02*
