M48
; DRILL file KiCad 10.0.5 date 2026-09-05T13:54:38
; FORMAT={-:-/ absolute / metric / decimal}
; #@! TF.CreationDate,2026-09-05T13:54:38+02:00
; #@! TF.GenerationSoftware,Kicad,Pcbnew,10.0.5
; #@! TF.FileFunction,Plated,1,2,PTH
FMAT,2
METRIC
; #@! TA.AperFunction,Plated,PTH,ComponentDrill
T1C0.500
; #@! TA.AperFunction,Plated,PTH,ViaDrill
T2C0.600
; #@! TA.AperFunction,Plated,PTH,ComponentDrill
T3C0.750
; #@! TA.AperFunction,Plated,PTH,ComponentDrill
T4C0.800
; #@! TA.AperFunction,Plated,PTH,ComponentDrill
T5C1.000
; #@! TA.AperFunction,Plated,PTH,ComponentDrill
T6C1.300
%
G90
G05
T1
X138.1Y-117.272
X139.8Y-117.272
T2
X121.59Y-136.322
X123.85Y-143.206
X123.876Y-136.322
X124.892Y-113.97
X125.146Y-144.633
X125.908Y-140.894
X125.908Y-147.498
X126.162Y-109.144
X128.956Y-102.032
X128.956Y-103.048
X128.956Y-104.064
X129.21Y-145.974
X129.232Y-149.044
X133.528Y-143.18
X133.528Y-144.28
X134.036Y-142.164
X134.036Y-145.466
X135.56Y-148.768
X135.56Y-149.868
X137.084Y-147.244
X139.37Y-148.768
X139.624Y-146.736
X140.132Y-112.192
X140.64Y-151.317
X141.148Y-106.858
X141.402Y-132.766
X141.402Y-134.278
X142.926Y-143.434
X142.926Y-148.006
X143.588Y-116.256
X143.688Y-141.555
X154.608Y-130.734
T3
X125.908Y-118.074
X125.908Y-123.074
X133.02Y-118.034
X133.02Y-123.034
T4
X125.46Y-128.448
X125.52Y-133.782
X132.96Y-128.448
X133.02Y-133.782
X141.238Y-121.59
X146.138Y-121.59
T5
X101.778Y-101.778
X101.778Y-104.318
X101.778Y-106.858
X101.778Y-109.398
X101.778Y-111.938
X101.778Y-114.478
X101.778Y-117.018
X101.778Y-119.558
X101.778Y-122.098
X101.778Y-124.638
X101.778Y-127.178
X101.778Y-129.718
X101.778Y-132.258
X101.778Y-134.798
X101.778Y-137.338
X101.778Y-139.878
X101.778Y-142.418
X101.778Y-144.958
X101.778Y-147.498
X101.778Y-150.038
X104.318Y-101.778
X104.318Y-104.318
X104.318Y-106.858
X104.318Y-109.398
X104.318Y-111.938
X104.318Y-114.478
X104.318Y-117.018
X104.318Y-119.558
X104.318Y-122.098
X104.318Y-124.638
X104.318Y-127.178
X104.318Y-129.718
X104.318Y-132.258
X104.318Y-134.798
X104.318Y-137.338
X104.318Y-139.878
X104.318Y-142.418
X104.318Y-144.958
X104.318Y-147.498
X104.318Y-150.038
X114.224Y-101.778
X114.224Y-104.318
X114.224Y-106.858
X114.224Y-109.398
X114.224Y-111.938
X114.224Y-114.478
X114.224Y-117.018
X114.224Y-119.558
X114.224Y-122.098
X114.224Y-124.638
X114.224Y-127.178
X114.224Y-129.718
X114.224Y-132.258
X114.224Y-134.798
X114.224Y-137.338
X114.224Y-139.878
X114.224Y-142.418
X114.224Y-144.958
X114.224Y-147.498
X114.224Y-150.038
X116.764Y-101.778
X116.764Y-104.318
X116.764Y-106.858
X116.764Y-109.398
X116.764Y-111.938
X116.764Y-114.478
X116.764Y-117.018
X116.764Y-119.558
X116.764Y-122.098
X116.764Y-124.638
X116.764Y-127.178
X116.764Y-129.718
X116.764Y-132.258
X116.764Y-134.798
X116.764Y-137.338
X116.764Y-139.878
X116.764Y-142.418
X116.764Y-144.958
X116.764Y-147.498
X116.764Y-150.038
X137.846Y-128.448
X137.846Y-130.988
X137.846Y-133.528
T6
X151.562Y-102.954
X151.562Y-107.954
X151.562Y-112.954
T1
X124.636Y-103.398G85X124.636Y-102.698
G05
X124.636Y-107.198G85X124.636Y-106.498
G05
X133.276Y-103.398G85X133.276Y-102.698
G05
X133.276Y-107.198G85X133.276Y-106.498
G05
M30
